<mxfile host="app.diagrams.net" modified="2023-06-12T23:10:17.922Z" agent="Mozilla/5.0 (Macintosh; Intel Mac OS X 10_15_7) AppleWebKit/537.36 (KHTML, like Gecko) Chrome/114.0.0.0 Safari/537.36" etag="G0YYJe3irYrHgAHk6SdM" version="21.3.8" type="github">
  <diagram id="C5RBs43oDa-KdzZeNtuy" name="Page-1">
    <mxGraphModel dx="3215" dy="1490" grid="1" gridSize="10" guides="1" tooltips="1" connect="1" arrows="1" fold="1" page="1" pageScale="1" pageWidth="827" pageHeight="1169" background="#ffffff" math="0" shadow="0">
      <root>
        <mxCell id="WIyWlLk6GJQsqaUBKTNV-0" />
        <mxCell id="WIyWlLk6GJQsqaUBKTNV-1" parent="WIyWlLk6GJQsqaUBKTNV-0" />
        <mxCell id="E0G3cQi8CWf1ikZbhB0M-4" value="" style="edgeStyle=orthogonalEdgeStyle;rounded=0;orthogonalLoop=1;jettySize=auto;html=1;" edge="1" parent="WIyWlLk6GJQsqaUBKTNV-1" source="E0G3cQi8CWf1ikZbhB0M-0" target="E0G3cQi8CWf1ikZbhB0M-3">
          <mxGeometry relative="1" as="geometry" />
        </mxCell>
        <mxCell id="E0G3cQi8CWf1ikZbhB0M-0" value="LOGIN PANEL" style="rounded=1;whiteSpace=wrap;html=1;fillColor=#d5e8d4;strokeColor=#82b366;" vertex="1" parent="WIyWlLk6GJQsqaUBKTNV-1">
          <mxGeometry x="354" y="160" width="120" height="60" as="geometry" />
        </mxCell>
        <mxCell id="E0G3cQi8CWf1ikZbhB0M-10" value="" style="edgeStyle=orthogonalEdgeStyle;rounded=0;orthogonalLoop=1;jettySize=auto;html=1;" edge="1" parent="WIyWlLk6GJQsqaUBKTNV-1" source="E0G3cQi8CWf1ikZbhB0M-3" target="E0G3cQi8CWf1ikZbhB0M-9">
          <mxGeometry relative="1" as="geometry" />
        </mxCell>
        <mxCell id="E0G3cQi8CWf1ikZbhB0M-3" value="INPUT DATA&lt;br&gt;AKUN PANEL" style="shape=parallelogram;perimeter=parallelogramPerimeter;whiteSpace=wrap;html=1;fixedSize=1;rounded=1;" vertex="1" parent="WIyWlLk6GJQsqaUBKTNV-1">
          <mxGeometry x="354" y="300" width="120" height="60" as="geometry" />
        </mxCell>
        <mxCell id="E0G3cQi8CWf1ikZbhB0M-8" value="" style="edgeStyle=orthogonalEdgeStyle;rounded=0;orthogonalLoop=1;jettySize=auto;html=1;" edge="1" parent="WIyWlLk6GJQsqaUBKTNV-1" source="E0G3cQi8CWf1ikZbhB0M-5" target="E0G3cQi8CWf1ikZbhB0M-7">
          <mxGeometry relative="1" as="geometry" />
        </mxCell>
        <mxCell id="E0G3cQi8CWf1ikZbhB0M-15" value="" style="edgeStyle=orthogonalEdgeStyle;rounded=0;orthogonalLoop=1;jettySize=auto;html=1;" edge="1" parent="WIyWlLk6GJQsqaUBKTNV-1" source="E0G3cQi8CWf1ikZbhB0M-5" target="E0G3cQi8CWf1ikZbhB0M-14">
          <mxGeometry relative="1" as="geometry" />
        </mxCell>
        <mxCell id="E0G3cQi8CWf1ikZbhB0M-5" value="VALIDASI" style="rhombus;whiteSpace=wrap;html=1;rounded=1;fillColor=#dae8fc;gradientColor=#7ea6e0;strokeColor=#6c8ebf;" vertex="1" parent="WIyWlLk6GJQsqaUBKTNV-1">
          <mxGeometry x="374" y="550" width="80" height="80" as="geometry" />
        </mxCell>
        <mxCell id="E0G3cQi8CWf1ikZbhB0M-13" style="edgeStyle=orthogonalEdgeStyle;rounded=0;orthogonalLoop=1;jettySize=auto;html=1;entryX=0.5;entryY=0;entryDx=0;entryDy=0;" edge="1" parent="WIyWlLk6GJQsqaUBKTNV-1" source="E0G3cQi8CWf1ikZbhB0M-7" target="E0G3cQi8CWf1ikZbhB0M-12">
          <mxGeometry relative="1" as="geometry" />
        </mxCell>
        <mxCell id="E0G3cQi8CWf1ikZbhB0M-7" value="AKUN TIDAK&lt;br&gt;AKTIF" style="shape=parallelogram;perimeter=parallelogramPerimeter;whiteSpace=wrap;html=1;fixedSize=1;rounded=1;" vertex="1" parent="WIyWlLk6GJQsqaUBKTNV-1">
          <mxGeometry x="514" y="560" width="120" height="60" as="geometry" />
        </mxCell>
        <mxCell id="E0G3cQi8CWf1ikZbhB0M-11" style="edgeStyle=orthogonalEdgeStyle;rounded=0;orthogonalLoop=1;jettySize=auto;html=1;" edge="1" parent="WIyWlLk6GJQsqaUBKTNV-1" source="E0G3cQi8CWf1ikZbhB0M-9" target="E0G3cQi8CWf1ikZbhB0M-5">
          <mxGeometry relative="1" as="geometry" />
        </mxCell>
        <mxCell id="E0G3cQi8CWf1ikZbhB0M-9" value="VALIDASI AKUN MENJADI 2 BAGIAN" style="rounded=0;whiteSpace=wrap;html=1;" vertex="1" parent="WIyWlLk6GJQsqaUBKTNV-1">
          <mxGeometry x="354" y="430" width="120" height="60" as="geometry" />
        </mxCell>
        <mxCell id="E0G3cQi8CWf1ikZbhB0M-16" value="" style="edgeStyle=orthogonalEdgeStyle;rounded=0;orthogonalLoop=1;jettySize=auto;html=1;" edge="1" parent="WIyWlLk6GJQsqaUBKTNV-1" source="E0G3cQi8CWf1ikZbhB0M-12" target="E0G3cQi8CWf1ikZbhB0M-14">
          <mxGeometry relative="1" as="geometry" />
        </mxCell>
        <mxCell id="E0G3cQi8CWf1ikZbhB0M-12" value="PROSES AKTIVASI&lt;br&gt;AKUN" style="rounded=0;whiteSpace=wrap;html=1;" vertex="1" parent="WIyWlLk6GJQsqaUBKTNV-1">
          <mxGeometry x="514" y="720" width="120" height="60" as="geometry" />
        </mxCell>
        <mxCell id="E0G3cQi8CWf1ikZbhB0M-18" style="edgeStyle=orthogonalEdgeStyle;rounded=0;orthogonalLoop=1;jettySize=auto;html=1;entryX=0.5;entryY=0;entryDx=0;entryDy=0;" edge="1" parent="WIyWlLk6GJQsqaUBKTNV-1" source="E0G3cQi8CWf1ikZbhB0M-14" target="E0G3cQi8CWf1ikZbhB0M-17">
          <mxGeometry relative="1" as="geometry" />
        </mxCell>
        <mxCell id="E0G3cQi8CWf1ikZbhB0M-14" value="AKUN AKTIF" style="shape=parallelogram;perimeter=parallelogramPerimeter;whiteSpace=wrap;html=1;fixedSize=1;rounded=1;" vertex="1" parent="WIyWlLk6GJQsqaUBKTNV-1">
          <mxGeometry x="354" y="720" width="120" height="60" as="geometry" />
        </mxCell>
        <mxCell id="E0G3cQi8CWf1ikZbhB0M-20" value="" style="edgeStyle=orthogonalEdgeStyle;rounded=0;orthogonalLoop=1;jettySize=auto;html=1;" edge="1" parent="WIyWlLk6GJQsqaUBKTNV-1" source="E0G3cQi8CWf1ikZbhB0M-17" target="E0G3cQi8CWf1ikZbhB0M-19">
          <mxGeometry relative="1" as="geometry" />
        </mxCell>
        <mxCell id="E0G3cQi8CWf1ikZbhB0M-38" value="" style="edgeStyle=orthogonalEdgeStyle;rounded=0;orthogonalLoop=1;jettySize=auto;html=1;" edge="1" parent="WIyWlLk6GJQsqaUBKTNV-1" source="E0G3cQi8CWf1ikZbhB0M-17" target="E0G3cQi8CWf1ikZbhB0M-37">
          <mxGeometry relative="1" as="geometry" />
        </mxCell>
        <mxCell id="E0G3cQi8CWf1ikZbhB0M-17" value="AKUN PENGGUNA" style="rounded=0;whiteSpace=wrap;html=1;fillColor=#d5e8d4;gradientColor=#97d077;strokeColor=#82b366;" vertex="1" parent="WIyWlLk6GJQsqaUBKTNV-1">
          <mxGeometry x="354" y="850" width="120" height="60" as="geometry" />
        </mxCell>
        <mxCell id="E0G3cQi8CWf1ikZbhB0M-22" value="" style="edgeStyle=orthogonalEdgeStyle;rounded=0;orthogonalLoop=1;jettySize=auto;html=1;" edge="1" parent="WIyWlLk6GJQsqaUBKTNV-1" source="E0G3cQi8CWf1ikZbhB0M-19" target="E0G3cQi8CWf1ikZbhB0M-21">
          <mxGeometry relative="1" as="geometry" />
        </mxCell>
        <mxCell id="E0G3cQi8CWf1ikZbhB0M-19" value="BERANDA ADMIN" style="strokeWidth=2;html=1;shape=mxgraph.flowchart.display;whiteSpace=wrap;fontStyle=0" vertex="1" parent="WIyWlLk6GJQsqaUBKTNV-1">
          <mxGeometry x="210" y="850" width="100" height="60" as="geometry" />
        </mxCell>
        <mxCell id="E0G3cQi8CWf1ikZbhB0M-24" value="" style="edgeStyle=orthogonalEdgeStyle;rounded=0;orthogonalLoop=1;jettySize=auto;html=1;" edge="1" parent="WIyWlLk6GJQsqaUBKTNV-1" source="E0G3cQi8CWf1ikZbhB0M-21" target="E0G3cQi8CWf1ikZbhB0M-23">
          <mxGeometry relative="1" as="geometry" />
        </mxCell>
        <mxCell id="E0G3cQi8CWf1ikZbhB0M-21" value="&lt;br&gt;INPUT DATA PANEL" style="html=1;strokeWidth=2;shape=manualInput;whiteSpace=wrap;rounded=1;size=26;arcSize=11;" vertex="1" parent="WIyWlLk6GJQsqaUBKTNV-1">
          <mxGeometry x="50" y="850" width="100" height="60" as="geometry" />
        </mxCell>
        <mxCell id="E0G3cQi8CWf1ikZbhB0M-27" value="" style="edgeStyle=orthogonalEdgeStyle;rounded=0;orthogonalLoop=1;jettySize=auto;html=1;" edge="1" parent="WIyWlLk6GJQsqaUBKTNV-1" source="E0G3cQi8CWf1ikZbhB0M-23" target="E0G3cQi8CWf1ikZbhB0M-26">
          <mxGeometry relative="1" as="geometry" />
        </mxCell>
        <mxCell id="E0G3cQi8CWf1ikZbhB0M-29" value="" style="edgeStyle=orthogonalEdgeStyle;rounded=0;orthogonalLoop=1;jettySize=auto;html=1;" edge="1" parent="WIyWlLk6GJQsqaUBKTNV-1" source="E0G3cQi8CWf1ikZbhB0M-23" target="E0G3cQi8CWf1ikZbhB0M-28">
          <mxGeometry relative="1" as="geometry" />
        </mxCell>
        <mxCell id="E0G3cQi8CWf1ikZbhB0M-31" value="" style="edgeStyle=orthogonalEdgeStyle;rounded=0;orthogonalLoop=1;jettySize=auto;html=1;" edge="1" parent="WIyWlLk6GJQsqaUBKTNV-1" source="E0G3cQi8CWf1ikZbhB0M-23" target="E0G3cQi8CWf1ikZbhB0M-30">
          <mxGeometry relative="1" as="geometry" />
        </mxCell>
        <mxCell id="E0G3cQi8CWf1ikZbhB0M-23" value="DATA PANEL" style="rhombus;whiteSpace=wrap;html=1;strokeWidth=2;rounded=1;arcSize=11;fillColor=#dae8fc;gradientColor=#7ea6e0;strokeColor=#6c8ebf;" vertex="1" parent="WIyWlLk6GJQsqaUBKTNV-1">
          <mxGeometry x="-120" y="840" width="80" height="80" as="geometry" />
        </mxCell>
        <mxCell id="E0G3cQi8CWf1ikZbhB0M-26" value="INPUT DATA MASTER" style="shape=parallelogram;perimeter=parallelogramPerimeter;whiteSpace=wrap;html=1;fixedSize=1;strokeWidth=2;rounded=1;arcSize=11;" vertex="1" parent="WIyWlLk6GJQsqaUBKTNV-1">
          <mxGeometry x="-140" y="690" width="120" height="60" as="geometry" />
        </mxCell>
        <mxCell id="E0G3cQi8CWf1ikZbhB0M-28" value="INPUT DATA NAVIGASI APP" style="shape=parallelogram;perimeter=parallelogramPerimeter;whiteSpace=wrap;html=1;fixedSize=1;strokeWidth=2;rounded=1;arcSize=11;" vertex="1" parent="WIyWlLk6GJQsqaUBKTNV-1">
          <mxGeometry x="-320" y="850" width="120" height="60" as="geometry" />
        </mxCell>
        <mxCell id="E0G3cQi8CWf1ikZbhB0M-30" value="DATA&lt;br&gt;PELAPORAN" style="shape=parallelogram;perimeter=parallelogramPerimeter;whiteSpace=wrap;html=1;fixedSize=1;strokeWidth=2;rounded=1;arcSize=11;" vertex="1" parent="WIyWlLk6GJQsqaUBKTNV-1">
          <mxGeometry x="-140" y="1010" width="120" height="60" as="geometry" />
        </mxCell>
        <mxCell id="E0G3cQi8CWf1ikZbhB0M-32" value="&lt;div style=&quot;&quot;&gt;DATA MASTER TERDIRI:&lt;/div&gt;&lt;div style=&quot;&quot;&gt;&lt;ol&gt;&lt;li&gt;AKUN PENGGUNA&lt;/li&gt;&lt;/ol&gt;&lt;/div&gt;" style="text;html=1;align=left;verticalAlign=middle;resizable=0;points=[];autosize=1;strokeColor=#d6b656;fillColor=#fff2cc;" vertex="1" parent="WIyWlLk6GJQsqaUBKTNV-1">
          <mxGeometry x="-150" y="610" width="170" height="70" as="geometry" />
        </mxCell>
        <mxCell id="E0G3cQi8CWf1ikZbhB0M-33" value="&lt;div style=&quot;&quot;&gt;&lt;div&gt;DATA NAVIGASI BERANDA TERDIRI:&lt;/div&gt;&lt;div&gt;&lt;ol&gt;&lt;li&gt;INFORMASI PROFILE&lt;/li&gt;&lt;li&gt;SLIDER BERANDA&lt;/li&gt;&lt;li&gt;KONTEN ARTIKEL/BERITA&lt;/li&gt;&lt;li&gt;PENGADUAN&lt;/li&gt;&lt;li&gt;FREQUENTLY ASK AND QUESTION&lt;/li&gt;&lt;/ol&gt;&lt;/div&gt;&lt;/div&gt;" style="text;html=1;align=left;verticalAlign=middle;resizable=0;points=[];autosize=1;strokeColor=#d6b656;fillColor=#fff2cc;" vertex="1" parent="WIyWlLk6GJQsqaUBKTNV-1">
          <mxGeometry x="-470" y="720" width="260" height="120" as="geometry" />
        </mxCell>
        <mxCell id="E0G3cQi8CWf1ikZbhB0M-34" value="&lt;div style=&quot;&quot;&gt;DATA PELAPORAN TERDIRI:&lt;/div&gt;&lt;div style=&quot;&quot;&gt;&lt;ol&gt;&lt;li&gt;REKAP PENGADUAN&amp;nbsp;&lt;/li&gt;&lt;/ol&gt;&lt;/div&gt;" style="text;html=1;align=left;verticalAlign=middle;resizable=0;points=[];autosize=1;strokeColor=#d6b656;fillColor=#fff2cc;" vertex="1" parent="WIyWlLk6GJQsqaUBKTNV-1">
          <mxGeometry x="-180" y="1080" width="190" height="70" as="geometry" />
        </mxCell>
        <mxCell id="E0G3cQi8CWf1ikZbhB0M-37" value="LOGOUT PANEL" style="rounded=1;whiteSpace=wrap;html=1;fillColor=#f8cecc;gradientColor=#ea6b66;strokeColor=#b85450;" vertex="1" parent="WIyWlLk6GJQsqaUBKTNV-1">
          <mxGeometry x="354" y="990" width="120" height="60" as="geometry" />
        </mxCell>
        <mxCell id="E0G3cQi8CWf1ikZbhB0M-39" value="Akun Pengguna Panel&lt;br&gt;&amp;nbsp;Aplikasi Informasi" style="text;html=1;align=left;verticalAlign=middle;resizable=0;points=[];autosize=1;strokeColor=#d6b656;fillColor=#fff2cc;" vertex="1" parent="WIyWlLk6GJQsqaUBKTNV-1">
          <mxGeometry x="475" y="310" width="140" height="40" as="geometry" />
        </mxCell>
        <mxCell id="E0G3cQi8CWf1ikZbhB0M-40" value="Akun Terdaftar di Panel Admin" style="text;html=1;align=left;verticalAlign=middle;resizable=0;points=[];autosize=1;strokeColor=#d6b656;fillColor=#fff2cc;" vertex="1" parent="WIyWlLk6GJQsqaUBKTNV-1">
          <mxGeometry x="580" y="550" width="180" height="30" as="geometry" />
        </mxCell>
        <mxCell id="E0G3cQi8CWf1ikZbhB0M-41" value="&lt;b&gt;&lt;font style=&quot;font-size: 24px;&quot;&gt;FLOWCHART APLIKASI ORGANISASI MUHAMMADYAH PALEMBANG&lt;/font&gt;&lt;/b&gt;" style="text;html=1;align=center;verticalAlign=middle;resizable=0;points=[];autosize=1;strokeColor=none;fillColor=none;" vertex="1" parent="WIyWlLk6GJQsqaUBKTNV-1">
          <mxGeometry x="-50" y="50" width="820" height="40" as="geometry" />
        </mxCell>
      </root>
    </mxGraphModel>
  </diagram>
</mxfile>
